<?xml version="1.0" encoding="utf-8"?>
<!-- Generator: Adobe Illustrator 25.0.0, SVG Export Plug-In . SVG Version: 6.00 Build 0)  -->
<svg version="1.1" id="Calque_1" xmlns="http://www.w3.org/2000/svg" xmlns:xlink="http://www.w3.org/1999/xlink" x="0px" y="0px"
	 viewBox="0 0 1530.74 1172.15" style="enable-background:new 0 0 1530.74 1172.15;" xml:space="preserve">
<style type="text/css">
	.st0{fill:#DFD2F2;}
	.st1{fill:#EEE1FA;}
	.st2{opacity:0.4;fill:#0B1B39;}
	.st3{fill:none;stroke:#005CFF;stroke-width:23;stroke-miterlimit:10;}
	.st4{fill:#202D0D;}
	.st5{fill:#111E05;}
	.st6{opacity:0.4;fill:#F4E4C6;}
	.st7{fill:none;stroke:#FFA300;stroke-width:23;stroke-miterlimit:10;}
	.st8{fill:#F4E4C6;stroke:#FFA300;stroke-width:23;stroke-miterlimit:10;}
	.st9{fill:#00EDFF;}
	.st10{fill:#FF0068;}
	.st11{fill:none;stroke:#FFA300;stroke-width:7;stroke-miterlimit:10;}
	.st12{fill:none;stroke:#492600;stroke-width:10;stroke-miterlimit:10;}
	.st13{fill:#FDFFB6;}
	.st14{fill:#1D1D1B;}
	.st15{fill:#0012FF;}
	.st16{fill:#FCFFB5;}
	.st17{fill:#FF5E5E;}
	.st18{fill:#61E0FF;}
	.st19{fill:#FA8A8A;}
</style>
<g>
	<rect x="597.45" class="st14" width="933.29" height="1101.07"/>
	<g>
		<path class="st14" d="M0,78.74c0-27.36,19.92-48.21,49.41-48.21c26.96,0,44.36,17.13,47.41,38.25H69.06
			c-1.59-7.04-8.63-13.68-19.66-13.68c-14.08,0-22.84,10.23-22.84,23.64c0,13.68,8.77,23.64,22.84,23.64
			c10.89,0,18.06-6.51,20.85-13.28h27.76c-3.05,20.98-21.91,37.85-48.61,37.85C19.79,126.95,0,106.23,0,78.74z"/>
		<path class="st14" d="M106.65,90.43c0-22.45,12.48-37.59,31.08-37.59c9.56,0,15.27,4.65,17.8,8.37h1.2v-6.64h24.97v70.66h-24.84
			v-6.64h-1.2c-2.12,3.45-7.44,8.37-17.53,8.37C119.4,126.95,106.65,112.88,106.65,90.43z M157.12,89.9
			c0-8.63-5.05-14.48-12.62-14.48s-12.62,5.84-12.62,14.48s5.05,14.48,12.62,14.48S157.12,98.53,157.12,89.9z"/>
		<path class="st14" d="M193.64,54.57h23.38v6.64h1.2c2.66-3.98,8.9-8.37,17.8-8.37c15.27,0,24.84,9.83,24.84,24.17v48.21h-24.97
			V85.91c0-5.58-2.66-9.83-8.5-9.83c-5.58,0-8.77,4.91-8.77,10.62v38.52h-24.97V54.57z"/>
		<path class="st14" d="M266.83,54.57h25.77l11.95,41.17h1.2l11.82-41.17h26.16l-23.77,70.66h-29.22L266.83,54.57z"/>
		<path class="st14" d="M345.19,90.43c0-22.45,12.48-37.59,31.08-37.59c9.56,0,15.27,4.65,17.8,8.37h1.2v-6.64h24.97v70.66h-24.84
			v-6.64h-1.2c-2.12,3.45-7.44,8.37-17.53,8.37C357.94,126.95,345.19,112.88,345.19,90.43z M395.66,89.9
			c0-8.63-5.05-14.48-12.62-14.48s-12.62,5.84-12.62,14.48s5.05,14.48,12.62,14.48S395.66,98.53,395.66,89.9z"/>
		<path class="st14" d="M428.2,103.05h22.45c0.27,3.45,3.59,5.31,9.03,5.31c5.31,0,8.5-1.46,8.5-4.12c0-9.83-38.91,3.59-38.91-27.76
			c0-11.95,9.96-23.64,30.41-23.64c17.8,0,30.02,7.97,30.81,23.51h-21.12c-0.66-3.32-3.59-5.58-9.3-5.58c-5.31,0-8.5,1.73-8.5,4.52
			c0,8.63,40.64-4.65,40.64,27.62c0,13.68-10.89,24.04-32.54,24.04C437.89,126.95,428.33,117.92,428.2,103.05z"/>
	</g>
	<g>
		<path class="st14" d="M238.69,202.82h2.03v15.71h7.57v1.83h-9.6V202.82z"/>
		<path class="st14" d="M251.55,215.53v-8.19h1.98v8.12c0,2.08,1.53,3.43,3.36,3.43c2.05,0,3.66-1.58,3.66-3.73v-7.82h1.98v13.03
			h-1.98v-1.9h-0.15c-0.55,1.18-1.95,2.23-3.98,2.23C253.38,220.69,251.55,218.41,251.55,215.53z"/>
		<path class="st14" d="M266.79,207.33h1.98v1.9h0.15c0.55-1.18,1.95-2.23,3.98-2.23c3.03,0,4.86,2.28,4.86,5.16v8.19h-1.98v-8.07
			c0-2.08-1.53-3.43-3.36-3.43c-2.05,0-3.66,1.58-3.66,3.73v7.77h-1.98V207.33z"/>
		<path class="st14" d="M281.02,213.87c0-4.01,2.66-6.87,6.34-6.87c2.73,0,4.18,1.75,4.58,2.43h0.15v-7.87h1.98v18.79h-1.9v-2.05
			h-0.15c-0.33,0.48-1.68,2.38-4.51,2.38C283.68,220.69,281.02,217.86,281.02,213.87z M292.17,213.87c0-3.21-2-5.06-4.58-5.06
			c-2.68,0-4.54,2.1-4.54,5.06c0,3.06,1.85,5.04,4.58,5.04C290.47,218.91,292.17,216.6,292.17,213.87z"/>
		<path class="st14" d="M295.23,224.32h0.95c1.55,0,2.46-1.03,2.46-2.43v-14.56h1.98v14.58c0,2.63-1.83,4.21-4.46,4.21h-0.93V224.32
			z M298.19,203.53c0-0.8,0.6-1.43,1.43-1.43c0.85,0,1.45,0.63,1.45,1.43c0,0.83-0.6,1.45-1.45,1.45
			C298.79,204.98,298.19,204.35,298.19,203.53z"/>
		<path class="st14" d="M304.33,213.87c0-4.01,2.66-6.87,6.34-6.87c2.73,0,4.18,1.75,4.58,2.43h0.15v-2.1h1.98v13.03h-1.9v-2.05
			h-0.15c-0.33,0.48-1.68,2.38-4.51,2.38C306.98,220.69,304.33,217.86,304.33,213.87z M315.47,213.87c0-3.21-2-5.06-4.58-5.06
			c-2.68,0-4.54,2.1-4.54,5.06c0,3.06,1.85,5.04,4.58,5.04C313.77,218.91,315.47,216.6,315.47,213.87z"/>
		<path class="st14" d="M328.91,202.82h2.23l6.79,15.31h0.15l6.29-15.31h2.23v17.54h-1.95v-13.08h-0.15l-5.34,13.08h-2.31
			l-5.84-13.08h-0.15v13.08h-1.95V202.82z"/>
		<path class="st14" d="M350.36,213.85c0-4.16,2.83-6.84,6.39-6.84c3.96,0,6.31,2.91,6.31,6.67v0.88h-10.62
			c0.1,2.61,1.78,4.33,4.46,4.33c1.73,0,3.38-0.83,3.98-2.36h2.05c-0.73,2.43-3.01,4.16-6.06,4.16
			C352.89,220.69,350.36,217.76,350.36,213.85z M360.96,212.8c-0.17-2.61-2-3.98-4.21-3.98c-2.18,0-4.06,1.58-4.26,3.98H360.96z"/>
		<path class="st14" d="M365.57,213.87c0-4.01,2.66-6.87,6.34-6.87c2.73,0,4.18,1.75,4.58,2.43h0.15v-7.87h1.98v18.79h-1.9v-2.05
			h-0.15c-0.33,0.48-1.68,2.38-4.51,2.38C368.23,220.69,365.57,217.86,365.57,213.87z M376.72,213.87c0-3.21-2-5.06-4.58-5.06
			c-2.68,0-4.54,2.1-4.54,5.06c0,3.06,1.85,5.04,4.58,5.04C375.02,218.91,376.72,216.6,376.72,213.87z"/>
		<path class="st14" d="M379.75,224.32h0.95c1.55,0,2.46-1.03,2.46-2.43v-14.56h1.98v14.58c0,2.63-1.83,4.21-4.46,4.21h-0.93V224.32
			z M382.71,203.53c0-0.8,0.6-1.43,1.43-1.43c0.85,0,1.45,0.63,1.45,1.43c0,0.83-0.6,1.45-1.45,1.45
			C383.31,204.98,382.71,204.35,382.71,203.53z"/>
		<path class="st14" d="M388.85,213.85c0-3.93,2.93-6.84,6.81-6.84c3.93,0,6.79,2.93,6.79,6.84s-2.91,6.84-6.81,6.84
			C391.73,220.69,388.85,217.81,388.85,213.85z M400.43,213.85c0-2.88-1.98-5.04-4.79-5.04c-2.81,0-4.76,2.18-4.76,5.04
			c0,2.93,1.98,5.04,4.76,5.04C398.45,218.88,400.43,216.75,400.43,213.85z"/>
		<path class="st14" d="M405.72,215.53v-8.19h1.98v8.12c0,2.08,1.53,3.43,3.36,3.43c2.05,0,3.66-1.58,3.66-3.73v-7.82h1.98v13.03
			h-1.98v-1.9h-0.15c-0.55,1.18-1.95,2.23-3.98,2.23C407.54,220.69,405.72,218.41,405.72,215.53z"/>
		<path class="st14" d="M423.01,218.31h-0.15v2.05h-1.9v-18.79h1.98v7.87h0.15c0.4-0.68,1.85-2.43,4.58-2.43
			c3.68,0,6.34,2.86,6.34,6.87c0,3.98-2.66,6.81-6.49,6.81C424.68,220.69,423.33,218.78,423.01,218.31z M431.98,213.87
			c0-2.96-1.85-5.06-4.54-5.06c-2.58,0-4.58,1.85-4.58,5.06c0,2.73,1.7,5.04,4.54,5.04C430.12,218.91,431.98,216.93,431.98,213.87z"
			/>
	</g>
	<g>
		<path class="st14" d="M238.69,232.9h2.23l6.79,15.31h0.15l6.29-15.31h2.23v17.54h-1.95v-13.08h-0.15l-5.34,13.08h-2.31
			l-5.84-13.08h-0.15v13.08h-1.95V232.9z"/>
		<path class="st14" d="M260.15,243.94c0-4.01,2.66-6.87,6.34-6.87c2.73,0,4.18,1.75,4.58,2.43h0.15v-2.1h1.98v13.03h-1.9v-2.05
			h-0.15c-0.33,0.48-1.68,2.38-4.51,2.38C262.8,250.76,260.15,247.93,260.15,243.94z M271.3,243.94c0-3.21-2-5.06-4.58-5.06
			c-2.68,0-4.54,2.1-4.54,5.06c0,3.06,1.85,5.04,4.58,5.04C269.59,248.98,271.3,246.68,271.3,243.94z"/>
		<path class="st14" d="M278.66,246.5v-7.42h-2.46v-1.68h1.95c0.35,0,0.63-0.23,0.63-0.65v-3.13h1.85v3.78h4.01v1.68h-4.01v7.39
			c0,1.4,0.53,2.23,2.03,2.23h1.8v1.73h-1.93C280.14,250.43,278.66,249.13,278.66,246.5z"/>
		<path class="st14" d="M287.76,233.6c0-0.8,0.6-1.43,1.43-1.43c0.85,0,1.45,0.63,1.45,1.43c0,0.83-0.6,1.45-1.45,1.45
			C288.36,235.05,287.76,234.42,287.76,233.6z M288.16,237.41h1.98v13.03h-1.98V237.41z"/>
		<path class="st14" d="M293.65,246.65h1.93c0.23,1.55,1.33,2.38,3.23,2.38c1.95,0,3.03-0.95,3.03-2.28c0-3.66-7.79-0.88-7.79-6.04
			c0-2.21,1.98-3.63,4.71-3.63c2.41,0,4.41,1.4,4.61,3.76h-1.9c-0.18-1.23-1.1-2.05-2.83-2.05c-1.63,0-2.68,0.8-2.68,1.93
			c0,3.31,7.82,0.55,7.82,5.94c0,2.46-2.03,4.11-5.06,4.11C295.63,250.76,293.88,249.08,293.65,246.65z"/>
		<path class="st14" d="M306.91,246.65h1.93c0.23,1.55,1.33,2.38,3.23,2.38c1.95,0,3.03-0.95,3.03-2.28c0-3.66-7.79-0.88-7.79-6.04
			c0-2.21,1.98-3.63,4.71-3.63c2.41,0,4.41,1.4,4.61,3.76h-1.9c-0.18-1.23-1.1-2.05-2.83-2.05c-1.63,0-2.68,0.8-2.68,1.93
			c0,3.31,7.82,0.55,7.82,5.94c0,2.46-2.03,4.11-5.06,4.11C308.89,250.76,307.13,249.08,306.91,246.65z"/>
		<path class="st14" d="M319.91,243.92c0-4.16,2.83-6.84,6.39-6.84c3.96,0,6.31,2.91,6.31,6.67v0.88h-10.62
			c0.1,2.61,1.78,4.33,4.46,4.33c1.73,0,3.38-0.83,3.98-2.36h2.05c-0.73,2.43-3.01,4.16-6.06,4.16
			C322.44,250.76,319.91,247.83,319.91,243.92z M330.51,242.87c-0.18-2.61-2-3.98-4.21-3.98c-2.18,0-4.06,1.58-4.26,3.98H330.51z"/>
		<path class="st14" d="M341.39,232.9h2.18l5.39,15.31h0.15l5.51-15.31h2.28l-6.64,17.54h-2.38L341.39,232.9z"/>
		<path class="st14" d="M359.66,237.41h1.95v2.43h0.15c0.38-1.1,1.65-2.43,3.56-2.43h1.1v1.98h-1.08c-2.38,0-3.71,1.85-3.71,4.33
			v6.71h-1.98V237.41z"/>
		<path class="st14" d="M369.28,233.6c0-0.8,0.6-1.43,1.43-1.43c0.85,0,1.45,0.63,1.45,1.43c0,0.83-0.6,1.45-1.45,1.45
			C369.88,235.05,369.28,234.42,369.28,233.6z M369.68,237.41h1.98v13.03h-1.98V237.41z"/>
		<path class="st14" d="M375.97,252.46h1.88c0.35,1.53,1.85,2.33,3.78,2.33c3.06,0,4.43-1.7,4.43-4.36v-2.05h-0.15
			c-0.33,0.48-1.68,2.38-4.51,2.38c-3.83,0-6.49-2.83-6.49-6.81c0-4.01,2.66-6.87,6.34-6.87c2.73,0,4.18,1.75,4.58,2.43h0.15v-2.1
			h1.98v13.03c0,3.83-2.43,6.09-6.34,6.09C378.45,256.52,376.4,254.79,375.97,252.46z M386.07,243.94c0-3.21-2-5.06-4.58-5.06
			c-2.68,0-4.54,2.1-4.54,5.06c0,3.06,1.85,5.04,4.58,5.04C384.36,248.98,386.07,246.68,386.07,243.94z"/>
		<path class="st14" d="M392.23,237.41h1.98v1.9h0.15c0.55-1.18,1.95-2.23,3.98-2.23c3.03,0,4.86,2.28,4.86,5.16v8.19h-1.98v-8.07
			c0-2.08-1.53-3.43-3.36-3.43c-2.05,0-3.66,1.58-3.66,3.73v7.77h-1.98V237.41z"/>
		<path class="st14" d="M406.47,243.94c0-4.01,2.66-6.87,6.34-6.87c2.73,0,4.18,1.75,4.58,2.43h0.15v-2.1h1.98v13.03h-1.9v-2.05
			h-0.15c-0.33,0.48-1.68,2.38-4.51,2.38C409.12,250.76,406.47,247.93,406.47,243.94z M417.62,243.94c0-3.21-2-5.06-4.58-5.06
			c-2.68,0-4.54,2.1-4.54,5.06c0,3.06,1.85,5.04,4.58,5.04C415.91,248.98,417.62,246.68,417.62,243.94z"/>
		<path class="st14" d="M423.53,245.6v-8.19h1.98v8.12c0,2.08,1.53,3.43,3.36,3.43c2.05,0,3.66-1.58,3.66-3.73v-7.82h1.98v13.03
			h-1.98v-1.9h-0.15c-0.55,1.18-1.95,2.23-3.98,2.23C425.36,250.76,423.53,248.48,423.53,245.6z"/>
		<path class="st14" d="M437.77,243.94c0-4.01,2.66-6.87,6.34-6.87c2.73,0,4.18,1.75,4.58,2.43h0.15v-7.87h1.98v18.79h-1.9v-2.05
			h-0.15c-0.33,0.48-1.68,2.38-4.51,2.38C440.42,250.76,437.77,247.93,437.77,243.94z M448.92,243.94c0-3.21-2-5.06-4.58-5.06
			c-2.68,0-4.54,2.1-4.54,5.06c0,3.06,1.85,5.04,4.58,5.04C447.21,248.98,448.92,246.68,448.92,243.94z"/>
	</g>
	<g>
		<path class="st14" d="M238.13,308.79c0.34-1.84,1.5-3.05,3.57-4.21l2.85-1.6c1.34-0.76,2.15-1.88,2.15-3.15
			c0-1.18-0.78-2.02-2.31-2.02c-1.76,0-2.91,1.14-3.13,2.59h-1.58c0.3-2.12,1.96-4.11,4.97-4.11c2.37,0,3.73,1.62,3.73,3.41
			c0,1.84-1.18,3.43-3.21,4.57l-2.75,1.56c-1.8,1.04-2.45,1.84-2.65,2.95l-0.06,0.32h7.1l-0.28,1.48h-8.72L238.13,308.79z"/>
		<path class="st14" d="M250.42,306.39l1.04-5.65c0.52-2.85,2.81-4.45,5.29-4.45c2.27,0,4.29,1.66,3.77,4.45l-1.04,5.65
			c-0.52,2.85-2.81,4.45-5.29,4.45C251.93,310.84,249.9,309.17,250.42,306.39z M257.9,306.29l1-5.45c0.32-1.7-0.7-3.01-2.37-3.01
			c-1.88,0-3.17,1.3-3.49,3.01l-1,5.45c-0.32,1.72,0.68,3.01,2.37,3.01C256.32,309.29,257.58,308.01,257.9,306.29z"/>
		<path class="st14" d="M262.35,308.79c0.34-1.84,1.5-3.05,3.57-4.21l2.85-1.6c1.34-0.76,2.15-1.88,2.15-3.15
			c0-1.18-0.78-2.02-2.31-2.02c-1.76,0-2.91,1.14-3.13,2.59h-1.58c0.3-2.12,1.96-4.11,4.97-4.11c2.37,0,3.73,1.62,3.73,3.41
			c0,1.84-1.18,3.43-3.21,4.57l-2.75,1.56c-1.8,1.04-2.45,1.84-2.65,2.95l-0.06,0.32h7.1l-0.28,1.48h-8.72L262.35,308.79z"/>
		<path class="st14" d="M274.64,306.39l1.04-5.65c0.52-2.85,2.81-4.45,5.29-4.45c2.27,0,4.29,1.66,3.77,4.45l-1.04,5.65
			c-0.52,2.85-2.81,4.45-5.29,4.45C276.14,310.84,274.12,309.17,274.64,306.39z M282.12,306.29l1-5.45c0.32-1.7-0.7-3.01-2.37-3.01
			c-1.88,0-3.17,1.3-3.49,3.01l-1,5.45c-0.32,1.72,0.68,3.01,2.37,3.01C280.54,309.29,281.8,308.01,282.12,306.29z"/>
	</g>
	<polygon class="st15" points="1374.38,1131.4 1013.76,1031.63 440.76,1131.4 440.76,437.25 1013.76,494.27 1374.38,437.25 	"/>
	<polygon class="st16" points="440.76,437.25 1058.4,53.3 1374.38,437.25 1013.76,494.27 	"/>
	<polygon class="st17" points="490.57,1131.4 1003.55,1038.82 1006.72,686.94 496.36,669.88 	"/>
	<rect x="912.46" y="683.92" class="st18" width="6.02" height="311.99"/>
	<polygon class="st18" points="796.67,943.63 802.69,943.63 802.65,679.83 796.62,679.83 	"/>
	<polygon class="st18" points="725.4,1011.88 731.42,1011.88 731.42,677.7 725.37,677.49 	"/>
	<g>
		<path class="st18" d="M929.28,770.46c0,9-6.18,16.3-13.81,16.3c-7.63,0-13.81-7.3-13.81-16.3s6.18-16.3,13.81-16.3
			C923.1,754.16,929.28,761.46,929.28,770.46"/>
		<path class="st18" d="M742.22,845.36c0,9-6.18,16.3-13.81,16.3c-7.63,0-13.81-7.3-13.81-16.3c0-9,6.18-16.3,13.81-16.3
			C736.03,829.06,742.22,836.36,742.22,845.36"/>
		<path class="st18" d="M929.28,848.02c0,9-6.18,16.3-13.81,16.3c-7.63,0-13.81-7.3-13.81-16.3s6.18-16.3,13.81-16.3
			C923.1,831.72,929.28,839.02,929.28,848.02"/>
		<path class="st18" d="M929.28,925.58c0,9-6.18,16.3-13.81,16.3c-7.63,0-13.81-7.3-13.81-16.3c0-9,6.18-16.3,13.81-16.3
			C923.1,909.28,929.28,916.57,929.28,925.58"/>
		<path class="st18" d="M813.48,802.37c0,9-6.18,16.3-13.81,16.3c-7.63,0-13.81-7.3-13.81-16.3s6.18-16.3,13.81-16.3
			C807.3,786.07,813.48,793.37,813.48,802.37"/>
		<path class="st18" d="M813.48,879.93c0,9-6.18,16.3-13.81,16.3c-7.63,0-13.81-7.3-13.81-16.3s6.18-16.3,13.81-16.3
			C807.3,863.63,813.48,870.93,813.48,879.93"/>
		<path class="st19" d="M1003.55,1038.82c0,0,94.74,72.57-54.65,118.1c-149.39,45.53-458.33-25.51-458.33-25.51"/>
	</g>
</g>
</svg>
